<svg width="25" height="25" viewBox="0 0 25 25" fill="none" xmlns="http://www.w3.org/2000/svg">
<g clip-path="url(#clip0_18_45)">
<path d="M17.474 5.00002L21.3889 8.91495C21.5538 9.07988 21.5538 9.34898 21.3889 9.51391L11.9097 18.9931L7.88194 19.4401C7.34375 19.5009 6.88802 19.0452 6.94878 18.507L7.39583 14.4792L16.875 5.00002C17.0399 4.83509 17.309 4.83509 17.474 5.00002ZM24.5052 4.0061L22.3872 1.88804C21.7274 1.22832 20.6554 1.22832 19.9913 1.88804L18.4549 3.4245C18.2899 3.58943 18.2899 3.85853 18.4549 4.02346L22.3698 7.93839C22.5347 8.10332 22.8038 8.10332 22.9687 7.93839L24.5052 6.40193C25.1649 5.73787 25.1649 4.66582 24.5052 4.0061V4.0061ZM16.6667 16.415V20.8334H2.77778V6.94446H12.7517C12.8906 6.94446 13.0208 6.88804 13.1207 6.79255L14.8568 5.05644C15.1866 4.72658 14.9523 4.16669 14.4878 4.16669H2.08333C0.93316 4.16669 0 5.09985 0 6.25002V21.5278C0 22.678 0.93316 23.6111 2.08333 23.6111H17.3611C18.5113 23.6111 19.4444 22.678 19.4444 21.5278V14.6788C19.4444 14.2144 18.8845 13.9844 18.5547 14.3099L16.8186 16.046C16.7231 16.1459 16.6667 16.2761 16.6667 16.415Z" fill="#FF6400"/>
</g>
<defs>
<clipPath id="clip0_18_45">
<rect width="25" height="25" fill="white"/>
</clipPath>
</defs>
</svg>
