<svg width="35" height="35" viewBox="0 0 35 35" fill="none" xmlns="http://www.w3.org/2000/svg">
<g clip-path="url(#clip0_7_264)">
<path d="M30.9736 2.1875H9.64552C6.98634 2.1875 4.43654 4.32031 3.95119 6.95215L0.0820447 28.0479C-0.403307 30.6797 1.36037 32.8125 4.02638 32.8125H25.3545C28.0137 32.8125 30.5635 30.6797 31.0488 28.0479L34.9248 6.95898C35.4033 4.32031 33.6397 2.1875 30.9736 2.1875ZM26.9951 25.9287L24.8076 26.8516L16.919 19.332C15.9141 20.0156 14.9229 20.665 14.0684 21.1846L15.5791 25.5732L14.3555 26.4414L11.5801 22.2715L7.99806 18.9834L9.0713 17.9307L13.0361 20.0566C13.6719 19.3389 14.458 18.5117 15.2783 17.6709L13.877 15.6475L9.17384 8.8252L10.459 6.84961L11.0674 6.52148L18.1152 14.2051L18.4502 14.5127C19.7764 13.2275 20.7608 12.2979 20.7608 12.2979C21.2871 11.8535 22.2305 12.0996 22.8594 12.8379C23.4746 13.5557 23.584 14.5264 23.044 14.9775C22.9209 15.0664 21.9844 15.7568 20.6309 16.7275L20.9385 17.2266L27.4258 25.3887L26.9951 25.9287Z" fill="#FF6400"/>
</g>
<defs>
<clipPath id="clip0_7_264">
<rect width="35" height="35" fill="white"/>
</clipPath>
</defs>
</svg>
