<svg width="32" height="32" viewBox="0 0 32 32" fill="none" xmlns="http://www.w3.org/2000/svg">
<path d="M21 24H11V26H21V24Z" fill="#F0CA00"/>
<path d="M19 28H13V30H19V28Z" fill="#F0CA00"/>
<path d="M16 2C13.3478 2 10.8043 3.05357 8.92892 4.92893C7.05355 6.8043 5.99999 9.34784 5.99999 12C5.93236 13.4533 6.21076 14.902 6.81228 16.2267C7.4138 17.5514 8.32126 18.7144 9.45999 19.62C10.46 20.55 11 21.08 11 22H13C13 20.16 11.89 19.13 10.81 18.14C9.87534 17.4243 9.13046 16.4903 8.64057 15.4198C8.15067 14.3494 7.93073 13.1752 7.99999 12C7.99999 9.87827 8.84284 7.84344 10.3431 6.34315C11.8434 4.84285 13.8783 4 16 4C18.1217 4 20.1565 4.84285 21.6568 6.34315C23.1571 7.84344 24 9.87827 24 12C24.0681 13.176 23.8466 14.3508 23.3549 15.4213C22.8633 16.4918 22.1165 17.4253 21.18 18.14C20.11 19.14 19 20.14 19 22H21C21 21.08 21.53 20.55 22.54 19.61C23.6779 18.706 24.585 17.5447 25.1865 16.2217C25.788 14.8987 26.0668 13.4518 26 12C26 10.6868 25.7413 9.38642 25.2388 8.17317C24.7362 6.95991 23.9996 5.85752 23.0711 4.92893C22.1425 4.00035 21.0401 3.26375 19.8268 2.7612C18.6136 2.25866 17.3132 2 16 2V2Z" fill="#F0CA00"/>
</svg>
