<svg width="23" height="25" viewBox="0 0 23 25" fill="none" xmlns="http://www.w3.org/2000/svg">
<path d="M21.1772 5.36865L13.0728 0.442871C12.1006 -0.147949 10.8989 -0.147949 9.92676 0.442871L1.82275 5.36865C1.56299 5.52637 1.56445 5.91895 1.82568 6.07471L11.5 11.8433L21.1748 6.07471C21.436 5.91895 21.4375 5.52685 21.1772 5.36865ZM21.853 7.54785L12.2812 13.2549V24.1836C12.2812 24.8125 12.9351 25.2046 13.4556 24.8882L20.8853 20.3726C21.8462 19.7886 22.4375 18.7153 22.4375 17.5552V7.90186C22.4375 7.58887 22.1133 7.39258 21.853 7.54785ZM0.5625 7.90186V17.5552C0.5625 18.7158 1.15381 19.7886 2.11475 20.3726L9.54443 24.8877C10.0654 25.2041 10.7188 24.8125 10.7188 24.1831V13.2549L1.14697 7.54785C0.886719 7.39258 0.5625 7.58887 0.5625 7.90186Z" fill="#FF6400"/>
</svg>
