<svg width="101" height="30" viewBox="0 0 101 30" fill="none" xmlns="http://www.w3.org/2000/svg">
<path fill-rule="evenodd" clip-rule="evenodd" d="M0 5C0 2.23858 2.23858 0 5 0H25C27.7614 0 30 2.23858 30 5V15.9795L15.9795 30H5C2.23858 30 0 27.7614 0 25V5ZM21.0132 30L30 21.0132V25C30 27.7614 27.7614 30 25 30H21.0132ZM7.62707 10.1694C9.03118 10.1694 10.1694 9.03118 10.1694 7.62707C10.1694 6.22295 9.03118 5.08469 7.62707 5.08469C6.22295 5.08469 5.08469 6.22295 5.08469 7.62707C5.08469 9.03118 6.22295 10.1694 7.62707 10.1694ZM10.1694 15.2542C10.1694 16.6583 9.03118 17.7966 7.62707 17.7966C6.22295 17.7966 5.08469 16.6583 5.08469 15.2542C5.08469 13.8501 6.22295 12.7118 7.62707 12.7118C9.03118 12.7118 10.1694 13.8501 10.1694 15.2542ZM7.62707 25.4237C9.03118 25.4237 10.1694 24.2855 10.1694 22.8814C10.1694 21.4772 9.03118 20.339 7.62707 20.339C6.22295 20.339 5.08469 21.4772 5.08469 22.8814C5.08469 24.2855 6.22295 25.4237 7.62707 25.4237ZM12.2034 7.62713C12.2034 7.06548 12.6587 6.61018 13.2203 6.61018H24.4068C24.9684 6.61018 25.4237 7.06548 25.4237 7.62713C25.4237 8.18878 24.9684 8.64408 24.4068 8.64408H13.2203C12.6587 8.64408 12.2034 8.18878 12.2034 7.62713ZM13.2203 14.2373C12.6587 14.2373 12.2034 14.6926 12.2034 15.2542C12.2034 15.8159 12.6587 16.2712 13.2203 16.2712H21.3559C21.9176 16.2712 22.3729 15.8159 22.3729 15.2542C22.3729 14.6926 21.9176 14.2373 21.3559 14.2373H13.2203Z" fill="#FF6400"/>
<path d="M47.959 8.78125V23H44.541L39.5117 14.1523V23H36.084V8.78125H39.5117L44.541 17.6289V8.78125H47.959ZM49.5605 17.8242V17.6191C49.5605 16.8444 49.6712 16.1315 49.8926 15.4805C50.1139 14.8229 50.4395 14.2533 50.8691 13.7715C51.2988 13.2897 51.8294 12.9154 52.4609 12.6484C53.0924 12.375 53.8216 12.2383 54.6484 12.2383C55.4818 12.2383 56.2142 12.375 56.8457 12.6484C57.4837 12.9154 58.0176 13.2897 58.4473 13.7715C58.877 14.2533 59.2025 14.8229 59.4238 15.4805C59.6452 16.1315 59.7559 16.8444 59.7559 17.6191V17.8242C59.7559 18.5924 59.6452 19.3053 59.4238 19.9629C59.2025 20.6139 58.877 21.1836 58.4473 21.6719C58.0176 22.1536 57.487 22.528 56.8555 22.7949C56.224 23.0618 55.4948 23.1953 54.668 23.1953C53.8411 23.1953 53.1087 23.0618 52.4707 22.7949C51.8327 22.528 51.2988 22.1536 50.8691 21.6719C50.4395 21.1836 50.1139 20.6139 49.8926 19.9629C49.6712 19.3053 49.5605 18.5924 49.5605 17.8242ZM52.8516 17.6191V17.8242C52.8516 18.2214 52.8809 18.5924 52.9395 18.9375C52.998 19.2826 53.0957 19.5853 53.2324 19.8457C53.3691 20.0996 53.5547 20.2982 53.7891 20.4414C54.0234 20.5846 54.3164 20.6562 54.668 20.6562C55.013 20.6562 55.2995 20.5846 55.5273 20.4414C55.7617 20.2982 55.9473 20.0996 56.084 19.8457C56.2207 19.5853 56.3184 19.2826 56.377 18.9375C56.4355 18.5924 56.4648 18.2214 56.4648 17.8242V17.6191C56.4648 17.235 56.4355 16.8737 56.377 16.5352C56.3184 16.1901 56.2207 15.8874 56.084 15.627C55.9473 15.36 55.7617 15.1517 55.5273 15.002C55.293 14.8522 55 14.7773 54.6484 14.7773C54.3034 14.7773 54.0137 14.8522 53.7793 15.002C53.5514 15.1517 53.3691 15.36 53.2324 15.627C53.0957 15.8874 52.998 16.1901 52.9395 16.5352C52.8809 16.8737 52.8516 17.235 52.8516 17.6191ZM66.7871 12.4336V14.7188H60.4199V12.4336H66.7871ZM61.7578 9.80664H65.0488V19.5527C65.0488 19.8327 65.0814 20.0508 65.1465 20.207C65.2116 20.3568 65.3223 20.4642 65.4785 20.5293C65.6413 20.5879 65.8561 20.6172 66.123 20.6172C66.3118 20.6172 66.4681 20.6139 66.5918 20.6074C66.7155 20.5944 66.8327 20.5781 66.9434 20.5586V22.9121C66.6634 23.0033 66.3704 23.0716 66.0645 23.1172C65.7585 23.1693 65.4329 23.1953 65.0879 23.1953C64.3848 23.1953 63.7826 23.0846 63.2812 22.8633C62.7865 22.6419 62.4089 22.2936 62.1484 21.8184C61.888 21.3431 61.7578 20.7246 61.7578 19.9629V9.80664ZM71.5723 12.4336V23H68.2715V12.4336H71.5723ZM68.0762 9.70898C68.0762 9.24023 68.2454 8.85612 68.584 8.55664C68.9225 8.25716 69.362 8.10742 69.9023 8.10742C70.4427 8.10742 70.8822 8.25716 71.2207 8.55664C71.5592 8.85612 71.7285 9.24023 71.7285 9.70898C71.7285 10.1777 71.5592 10.5618 71.2207 10.8613C70.8822 11.1608 70.4427 11.3105 69.9023 11.3105C69.362 11.3105 68.9225 11.1608 68.584 10.8613C68.2454 10.5618 68.0762 10.1777 68.0762 9.70898ZM79.0918 20.3438V15.9883C79.0918 15.6888 79.0495 15.4316 78.9648 15.2168C78.8802 15.002 78.7467 14.8359 78.5645 14.7188C78.3822 14.5951 78.138 14.5332 77.832 14.5332C77.5846 14.5332 77.373 14.5755 77.1973 14.6602C77.0215 14.7448 76.888 14.8717 76.7969 15.041C76.7057 15.2103 76.6602 15.4251 76.6602 15.6855H73.3691C73.3691 15.1973 73.4766 14.7448 73.6914 14.3281C73.9128 13.9049 74.2253 13.5371 74.6289 13.2246C75.0391 12.9121 75.5273 12.6712 76.0938 12.502C76.6667 12.3262 77.3047 12.2383 78.0078 12.2383C78.8477 12.2383 79.5964 12.3783 80.2539 12.6582C80.918 12.9382 81.4421 13.3581 81.8262 13.918C82.2103 14.4714 82.4023 15.168 82.4023 16.0078V20.334C82.4023 21.0241 82.4414 21.5482 82.5195 21.9062C82.5977 22.2578 82.7083 22.5671 82.8516 22.834V23H79.5508C79.3945 22.6745 79.2773 22.2773 79.1992 21.8086C79.1276 21.3333 79.0918 20.8451 79.0918 20.3438ZM79.4922 16.5449L79.5117 18.3027H78.0566C77.7507 18.3027 77.4902 18.3451 77.2754 18.4297C77.0671 18.5143 76.8978 18.6315 76.7676 18.7812C76.6439 18.9245 76.5527 19.0872 76.4941 19.2695C76.4421 19.4518 76.416 19.6439 76.416 19.8457C76.416 20.041 76.4616 20.2168 76.5527 20.373C76.6504 20.5228 76.7806 20.64 76.9434 20.7246C77.1061 20.8092 77.2884 20.8516 77.4902 20.8516C77.8548 20.8516 78.1641 20.7832 78.418 20.6465C78.6784 20.5033 78.877 20.3307 79.0137 20.1289C79.1504 19.9271 79.2188 19.7383 79.2188 19.5625L79.9414 20.9102C79.8112 21.1706 79.6615 21.4342 79.4922 21.7012C79.3294 21.9681 79.1243 22.2155 78.877 22.4434C78.6361 22.6647 78.3398 22.847 77.9883 22.9902C77.6367 23.127 77.2103 23.1953 76.709 23.1953C76.0579 23.1953 75.459 23.0618 74.9121 22.7949C74.3717 22.528 73.9388 22.1569 73.6133 21.6816C73.2878 21.1999 73.125 20.6465 73.125 20.0215C73.125 19.4746 73.2227 18.9863 73.418 18.5566C73.6198 18.127 73.9225 17.7624 74.3262 17.4629C74.7298 17.1634 75.2441 16.9355 75.8691 16.7793C76.4941 16.623 77.2298 16.5449 78.0762 16.5449H79.4922ZM87.5488 14.6699V23H84.2578V12.4336H87.3438L87.5488 14.6699ZM87.1484 17.3555L86.3965 17.375C86.3965 16.6328 86.4844 15.9492 86.6602 15.3242C86.8359 14.6992 87.0964 14.1556 87.4414 13.6934C87.7865 13.2311 88.2096 12.873 88.7109 12.6191C89.2188 12.3652 89.8047 12.2383 90.4688 12.2383C90.931 12.2383 91.3509 12.3099 91.7285 12.4531C92.1061 12.5898 92.4316 12.8079 92.7051 13.1074C92.9785 13.4004 93.1868 13.7845 93.3301 14.2598C93.4798 14.7285 93.5547 15.2917 93.5547 15.9492V23H90.2637V16.3691C90.2637 15.9199 90.2116 15.5814 90.1074 15.3535C90.0098 15.1257 89.8665 14.9727 89.6777 14.8945C89.4889 14.8164 89.2578 14.7773 88.9844 14.7773C88.6979 14.7773 88.4408 14.8424 88.2129 14.9727C87.985 15.1029 87.7897 15.2852 87.627 15.5195C87.4707 15.7474 87.3503 16.0176 87.2656 16.3301C87.1875 16.6426 87.1484 16.9844 87.1484 17.3555ZM93.1836 17.3555L92.2656 17.375C92.2656 16.6328 92.347 15.9492 92.5098 15.3242C92.679 14.6992 92.9297 14.1556 93.2617 13.6934C93.6003 13.2311 94.0202 12.873 94.5215 12.6191C95.0228 12.3652 95.6055 12.2383 96.2695 12.2383C96.7513 12.2383 97.194 12.3099 97.5977 12.4531C98.0013 12.5964 98.3496 12.8275 98.6426 13.1465C98.9355 13.4655 99.1634 13.8887 99.3262 14.416C99.4889 14.9368 99.5703 15.5814 99.5703 16.3496V23H96.2695V16.3496C96.2695 15.9134 96.2174 15.5846 96.1133 15.3633C96.0156 15.1354 95.8724 14.9824 95.6836 14.9043C95.4948 14.8197 95.2702 14.7773 95.0098 14.7773C94.6973 14.7773 94.4271 14.8424 94.1992 14.9727C93.9714 15.1029 93.7793 15.2852 93.623 15.5195C93.4733 15.7474 93.3626 16.0176 93.291 16.3301C93.2194 16.6426 93.1836 16.9844 93.1836 17.3555Z" fill="#FF6400"/>
</svg>
