<svg width="30" height="30" viewBox="0 0 30 30" fill="none" xmlns="http://www.w3.org/2000/svg">
<path fill-rule="evenodd" clip-rule="evenodd" d="M0 5C0 2.23858 2.23858 0 5 0H25C27.7614 0 30 2.23858 30 5V15.9795L15.9795 30H5C2.23858 30 0 27.7614 0 25V5ZM21.0132 30L30 21.0132V25C30 27.7614 27.7614 30 25 30H21.0132ZM7.62707 10.1694C9.03118 10.1694 10.1694 9.03118 10.1694 7.62707C10.1694 6.22295 9.03118 5.08469 7.62707 5.08469C6.22295 5.08469 5.08469 6.22295 5.08469 7.62707C5.08469 9.03118 6.22295 10.1694 7.62707 10.1694ZM10.1694 15.2542C10.1694 16.6583 9.03118 17.7966 7.62707 17.7966C6.22295 17.7966 5.08469 16.6583 5.08469 15.2542C5.08469 13.8501 6.22295 12.7118 7.62707 12.7118C9.03118 12.7118 10.1694 13.8501 10.1694 15.2542ZM7.62707 25.4237C9.03118 25.4237 10.1694 24.2855 10.1694 22.8814C10.1694 21.4772 9.03118 20.339 7.62707 20.339C6.22295 20.339 5.08469 21.4772 5.08469 22.8814C5.08469 24.2855 6.22295 25.4237 7.62707 25.4237ZM12.2034 7.62713C12.2034 7.06548 12.6587 6.61018 13.2203 6.61018H24.4068C24.9684 6.61018 25.4237 7.06548 25.4237 7.62713C25.4237 8.18878 24.9684 8.64408 24.4068 8.64408H13.2203C12.6587 8.64408 12.2034 8.18878 12.2034 7.62713ZM13.2203 14.2373C12.6587 14.2373 12.2034 14.6926 12.2034 15.2542C12.2034 15.8159 12.6587 16.2712 13.2203 16.2712H21.3559C21.9176 16.2712 22.3729 15.8159 22.3729 15.2542C22.3729 14.6926 21.9176 14.2373 21.3559 14.2373H13.2203Z" fill="#467599"/>
</svg>
