<svg width="32" height="32" viewBox="0 0 32 32" fill="none" xmlns="http://www.w3.org/2000/svg">
<path d="M26 20L27.4272 21.9028L23 26.9629L18.5728 21.9029L20 20H26ZM27 18H19L16 22L23 30L30 22L27 18Z" fill="#467599"/>
<path d="M16 26H12V18H14V16H12C11.4696 16 10.9609 16.2107 10.5858 16.5858C10.2107 16.9609 10 17.4696 10 18V26H6V6.00002H10V10C10 10.5305 10.2107 11.0392 10.5858 11.4142C10.9609 11.7893 11.4696 12 12 12H20C20.5304 12 21.0391 11.7893 21.4142 11.4142C21.7893 11.0392 22 10.5305 22 10V6.41002L26 10.41V16H28V10C28.0008 9.86841 27.9755 9.73795 27.9258 9.61611C27.876 9.49428 27.8027 9.38346 27.71 9.29002L22.71 4.29002C22.6166 4.19729 22.5058 4.12393 22.3839 4.07416C22.2621 4.0244 22.1316 3.9992 22 4.00002H6C5.46957 4.00002 4.96086 4.21073 4.58579 4.58581C4.21071 4.96088 4 5.46959 4 6.00002V26C4 26.5305 4.21071 27.0392 4.58579 27.4142C4.96086 27.7893 5.46957 28 6 28H16V26ZM12 6.00002H20V10H12V6.00002Z" fill="#467599"/>
</svg>
